<?xml version="1.0" standalone="no"?>
<!DOCTYPE svg PUBLIC "-//W3C//DTD SVG 20010904//EN"
 "http://www.w3.org/TR/2001/REC-SVG-20010904/DTD/svg10.dtd">
<svg version="1.0" xmlns="http://www.w3.org/2000/svg"
 width="1720" height="1720" viewBox="0 0 5202.000000 1083.000000"
 preserveAspectRatio="xMidYMid meet">

<g transform="translate(260.100000,1083.000000) scale(0.090000,-0.090000)"
fill="#000000" stroke="none">
<path fill="#1A76BC" d="M10362 10820 c-317 -33 -604 -166 -831 -385 -126 -122 -209 -235
-286 -390 -112 -226 -151 -408 -142 -670 3 -90 13 -193 22 -235 54 -247 167
-467 336 -656 60 -68 66 -79 59 -103 -5 -14 -183 -669 -396 -1456 -212 -786
-387 -1431 -389 -1433 -1 -2 -540 684 -1196 1525 -657 840 -1228 1563 -1269
1607 -279 293 -681 488 -1161 563 -160 24 -529 25 -689 0 -463 -72 -874 -257
-1215 -549 -132 -113 -228 -216 -340 -364 -147 -193 -283 -437 -365 -654 -17
-47 -318 -1152 -668 -2454 l-637 -2369 -110 -27 c-124 -31 -210 -62 -305 -110
-586 -295 -890 -950 -735 -1588 225 -931 1312 -1364 2120 -844 317 203 535
524 617 905 28 135 31 388 4 522 -41 211 -135 427 -252 581 l-61 82 407 1519
c224 835 411 1518 416 1517 5 0 413 -518 907 -1150 494 -632 1047 -1340 1230
-1574 400 -512 499 -632 623 -755 315 -313 640 -438 1098 -422 346 12 653 95
1021 277 290 143 540 318 759 530 211 204 354 392 466 613 31 63 69 149 84
193 15 43 324 1179 687 2524 363 1345 663 2451 667 2459 4 8 50 28 102 46 393
133 712 433 859 810 79 202 107 366 98 580 -25 577 -393 1072 -939 1264 -173
60 -416 89 -596 71z m346 -773 c105 -37 176 -82 258 -163 58 -57 81 -90 117
-165 57 -119 72 -181 71 -299 -1 -179 -65 -332 -194 -461 -125 -125 -279 -189
-457 -189 -123 0 -180 13 -293 67 -80 38 -108 58 -175 127 -86 87 -129 157
-166 271 -33 101 -34 269 -1 375 69 222 243 391 464 450 106 29 275 23 376
-13z m-6041 -2242 c152 -48 320 -174 514 -387 94 -103 2753 -3296 2913 -3498
37 -47 81 -114 99 -150 28 -57 32 -75 32 -145 0 -68 -5 -88 -29 -135 -41 -79
-122 -175 -215 -254 -181 -155 -312 -216 -465 -216 -190 0 -372 104 -606 346
-152 158 -3044 3641 -3077 3706 -110 218 69 519 408 686 158 78 285 92 426 47z
m-3057 -5773 c191 -62 359 -230 422 -422 29 -90 36 -260 13 -355 -52 -225
-217 -400 -450 -480 -77 -26 -236 -31 -329 -11 -247 55 -447 255 -502 502 -34
154 -2 353 78 479 93 147 245 260 404 300 86 21 279 14 364 -13z"/>
<path fill="#F00001" d="M13656 8418 c-19 -68 -206 -779 -206 -784 0 -2 371 -4 825 -4 l825 0
54 108 c133 265 340 510 574 679 34 24 62 47 62 49 0 2 -477 4 -1060 4 l-1059
0 -15 -52z"/>
<path fill="#1A76BC" d="M16720 8459 c-266 -34 -518 -126 -730 -267 -111 -74 -298 -261 -377
-377 -58 -86 -123 -205 -158 -290 -9 -22 -243 -888 -521 -1925 -278 -1037
-507 -1893 -510 -1903 -5 -16 51 -17 1117 -15 l1123 3 507 1893 c279 1041 516
1907 526 1925 27 45 101 92 180 113 62 16 152 18 971 21 496 3 902 6 902 8 0
3 47 184 105 403 58 219 105 404 105 410 0 14 -3132 15 -3240 1z"/>
<path fill="#1A76BC" d="M21132 8459 c-374 -36 -731 -183 -913 -377 -124 -131 -81 18 -674
-2307 -294 -1149 -532 -2091 -531 -2092 2 -2 1115 -2 2475 -1 l2472 3 -278
380 -278 380 -888 3 c-840 2 -888 3 -883 20 14 46 295 1137 460 1787 103 402
190 738 194 747 5 13 134 -143 552 -669 300 -377 794 -999 1098 -1382 305
-383 656 -825 780 -983 l227 -288 623 0 622 0 -73 93 c-41 50 -775 979 -1631
2062 -856 1084 -1586 2002 -1622 2042 -238 266 -671 481 -1120 557 -199 34
-427 43 -612 25z"/>
<path fill="#1A76BC" d="M32926 8258 c-32 -117 -320 -1194 -640 -2393 l-583 -2180 1255 -3
c690 -1 1256 -1 1258 0 2 3 330 1241 336 1269 2 10 -168 195 -437 478 -242
255 -440 467 -440 472 0 5 313 225 695 490 382 264 698 485 701 492 4 7 95
345 204 752 108 407 203 761 210 788 l14 47 -1258 0 -1258 0 -57 -212z"/>
<path fill="#F00001" d="M37444 8372 c-1395 -1063 -2351 -1775 -3161 -2356 -106 -76 -193
-141 -193 -145 0 -4 14 -20 31 -37 59 -56 495 -510 709 -739 250 -268 724
-788 1060 -1163 l234 -262 1383 0 c761 0 1383 2 1383 5 0 5 -2081 2345 -2162
2431 l-29 31 1497 1154 c824 635 1505 1159 1513 1166 13 10 -212 12 -1060 13
l-1077 0 -128 -98z"/>
<path fill="#1A76BC" d="M39532 6358 c-240 -1254 -402 -2126 -402 -2159 1 -234 195 -406 558
-496 60 -15 179 -17 1107 -20 l1040 -4 74 388 c40 213 76 400 78 416 l6 27
-385 0 c-314 0 -394 3 -435 15 -60 18 -99 58 -109 111 -5 27 86 523 351 1908
196 1029 359 1881 362 1894 l5 22 -924 0 -924 0 -402 -2102z"/>
<path fill="#1A76BC" d="M47829 8458 c0 -2 -121 -631 -268 -1398 l-267 -1395 1191 -6 c1054
-5 1198 -7 1256 -22 211 -52 367 -159 433 -297 25 -54 31 -80 34 -156 5 -104
-11 -174 -61 -268 -94 -177 -367 -341 -651 -391 -96 -16 -626 -22 -626 -7 0 8
143 758 156 815 l6 27 -899 0 -898 0 -158 -833 c-87 -457 -158 -836 -157 -840
0 -4 609 -6 1353 -4 1431 4 1393 3 1740 52 415 58 851 186 1152 337 294 149
540 367 677 601 184 315 223 683 104 976 -181 445 -836 736 -1846 821 -69 6
-288 13 -487 17 -200 3 -363 10 -363 15 0 4 81 440 180 968 99 528 180 967
180 975 0 13 -111 15 -890 15 -489 0 -890 -1 -891 -2z"/>
<path fill="#1A76BC"  d="M27400 8409 c-271 -31 -574 -132 -818 -271 -224 -127 -375 -284 -447
-465 -24 -60 -715 -2628 -715 -2657 0 -17 287 -386 300 -386 4 0 10 18 14 41
8 49 47 129 89 182 67 83 193 145 303 148 l51 2 308 1151 c170 633 310 1160
313 1172 2 12 -9 40 -26 65 -141 209 -59 507 171 618 218 106 476 14 580 -207
43 -91 50 -215 18 -310 l-22 -63 118 -123 c1414 -1471 2250 -2336 2259 -2336
6 0 19 8 28 19 9 10 49 34 89 52 67 31 79 34 172 34 81 -1 111 -5 158 -24 68
-27 148 -88 185 -141 15 -22 29 -39 32 -40 3 0 214 791 470 1758 255 966 465
1763 468 1770 3 9 -31 12 -152 12 l-155 0 -14 -47 c-7 -27 -151 -564 -318
-1195 -167 -631 -307 -1148 -310 -1148 -3 0 -450 483 -993 1073 -543 589
-1013 1093 -1044 1119 -124 104 -317 172 -564 198 -111 12 -443 11 -548 -1z"/>
<path fill="#1A76BC" d="M31630 8332 c0 -68 4 -87 31 -140 33 -66 77 -109 149 -144 35 -17 63
-22 125 -22 94 0 156 25 217 86 60 60 81 110 86 211 l4 87 -306 0 -306 0 0
-78z"/>
<path fill="#1A76BC" d="M32368 8356 c7 -113 -36 -232 -115 -317 -90 -96 -186 -139 -313 -139
-151 0 -270 61 -361 184 -19 26 -30 34 -34 25 -5 -14 -858 -3246 -921 -3489
-41 -158 -68 -212 -141 -281 -192 -182 -499 -151 -648 66 -75 109 -95 259 -52
386 l23 66 -1184 1231 -1184 1230 -47 -35 c-121 -93 -291 -114 -428 -53 l-43
19 -15 -52 c-8 -29 -143 -533 -300 -1122 -158 -588 -288 -1077 -291 -1086 -3
-11 9 -22 38 -35 65 -29 149 -118 189 -199 32 -67 34 -75 34 -180 0 -103 -2
-114 -31 -176 -61 -128 -168 -215 -301 -245 -41 -9 -90 -14 -109 -11 -19 3
-34 4 -34 1 0 -2 53 -70 117 -152 64 -81 151 -190 192 -242 l75 -95 12 40 c6
22 147 553 314 1180 167 627 306 1144 310 1148 5 5 413 -429 907 -965 495
-535 924 -995 954 -1023 226 -205 578 -348 956 -386 146 -15 399 -5 543 21
537 97 938 397 1081 808 16 45 1049 3915 1049 3929 0 1 -55 3 -122 3 l-123 0
3 -54z"/>
<path fill="#1A76BC" d="M27039 7906 c-124 -44 -198 -147 -199 -275 0 -83 14 -128 59 -187
101 -133 300 -153 426 -42 71 63 99 126 99 223 0 98 -28 160 -100 224 -74 65
-195 89 -285 57z"/>
<path fill="#1A76BC" d="M44660 6479 c-945 -48 -1747 -293 -2155 -659 -229 -206 -370 -444
-431 -732 -27 -126 -25 -347 4 -456 81 -300 303 -522 690 -688 213 -91 435
-154 706 -199 364 -60 323 -58 1792 -62 l1350 -4 77 403 c43 222 77 409 77
416 0 9 -176 12 -847 12 l-848 0 -28 -54 c-80 -153 -264 -246 -431 -218 -97
16 -168 52 -237 121 -170 170 -167 436 6 600 172 162 424 159 591 -7 30 -30
64 -76 76 -103 l23 -49 877 0 878 0 5 23 c12 51 315 1641 315 1653 0 12 -184
14 -1167 13 -643 -1 -1238 -6 -1323 -10z"/>
<path fill="#1A76BC" d="M30112 4935 c-220 -61 -294 -333 -135 -492 116 -116 298 -118 417 -5
59 57 86 122 86 212 0 89 -20 138 -79 203 -72 78 -187 110 -289 82z"/>
<path fill="#1A76BC" d="M44595 4898 c-111 -40 -185 -157 -172 -270 7 -57 29 -102 71 -146 51
-55 101 -76 181 -77 80 0 128 19 181 72 49 49 67 90 72 168 3 62 1 76 -25 125
-60 113 -194 169 -308 128z"/>
<path fill="#1A76BC" d="M26045 4850 c-112 -44 -186 -150 -186 -268 -1 -126 54 -217 163 -271
108 -54 233 -38 323 41 69 61 99 126 99 218 1 86 -20 142 -74 204 -75 85 -219
119 -325 76z"/>
<path fill="#7F7F7F" d="M33205 2651 c-81 -37 -115 -102 -123 -233 l-5 -88 -48 0 -49 0 0 -95
0 -95 50 0 50 0 0 -370 0 -370 100 0 100 0 0 370 0 370 75 0 75 0 0 95 0 95
-75 0 -75 0 0 44 c0 95 26 122 110 114 l41 -4 20 66 c11 36 22 72 25 81 11 39
-197 54 -271 20z"/>
<path fill="#7F7F7F" d="M35790 2455 c0 -113 -4 -205 -8 -205 -5 0 -21 13 -36 29 -16 16 -51
39 -79 52 -43 18 -64 21 -128 16 -237 -16 -361 -188 -363 -502 -1 -187 37
-300 127 -381 61 -55 132 -78 242 -77 89 0 165 26 206 69 31 33 39 30 39 -16
l0 -40 100 0 100 0 0 630 0 630 -100 0 -100 0 0 -205z m-114 -314 c82 -37 109
-107 108 -281 0 -142 -17 -210 -62 -253 -59 -57 -152 -72 -228 -38 -84 38
-117 121 -116 291 0 108 17 175 57 237 38 58 161 80 241 44z"/>
<path fill="#7F7F7F" d="M41570 2455 c0 -113 -4 -205 -8 -205 -5 0 -21 13 -36 29 -16 16 -51
39 -79 52 -44 18 -64 21 -129 16 -236 -16 -361 -190 -362 -502 0 -305 119
-457 359 -459 91 0 155 18 204 60 21 19 42 34 45 34 3 0 6 -18 6 -40 l0 -40
100 0 100 0 0 630 0 630 -100 0 -100 0 0 -205z m-113 -314 c56 -26 89 -79 104
-165 12 -74 7 -223 -11 -288 -31 -111 -166 -169 -276 -119 -81 37 -115 119
-115 281 0 163 34 250 112 288 55 27 129 28 186 3z"/>
<path fill="#7F7F7F" d="M13360 2555 l0 -95 165 0 165 0 0 -530 0 -530 105 0 105 0 0 530 0
530 160 0 160 0 0 95 0 95 -430 0 -430 0 0 -95z"/>
<path fill="#7F7F7F" d="M14460 2535 l0 -115 105 0 105 0 0 115 0 115 -105 0 -105 0 0 -115z"/>
<path fill="#7F7F7F" d="M16980 2535 l0 -115 105 0 105 0 0 115 0 115 -105 0 -105 0 0 -115z"/>
<path fill="#7F7F7F" d="M17480 2535 l0 -115 105 0 105 0 0 115 0 115 -105 0 -105 0 0 -115z"/>
<path fill="#7F7F7F" d="M19370 2025 l0 -625 100 0 100 0 0 213 0 212 61 70 c33 39 65 70 71
70 5 0 87 -127 182 -282 l171 -283 117 0 117 0 -211 333 c-116 182 -220 346
-230 364 l-19 31 207 244 c114 133 214 251 222 261 14 16 8 17 -110 17 l-125
0 -219 -265 c-120 -146 -222 -265 -226 -265 -5 0 -8 119 -8 265 l0 265 -100 0
-100 0 0 -625z"/>
<path fill="#7F7F7F" d="M22750 2025 l0 -625 345 0 345 0 0 90 0 90 -240 0 -240 0 0 535 0
535 -105 0 -105 0 0 -625z"/>
<path fill="#7F7F7F" d="M24620 2025 l0 -625 100 0 100 0 0 41 0 41 39 -35 c51 -46 100 -62
191 -61 238 2 361 159 361 459 0 286 -113 461 -319 494 -88 14 -188 -14 -236
-68 -11 -12 -23 -21 -28 -21 -4 0 -8 90 -8 200 l0 200 -100 0 -100 0 0 -625z
m495 107 c19 -11 41 -39 59 -75 25 -51 30 -73 34 -163 11 -245 -60 -356 -220
-341 -75 7 -119 39 -145 104 -15 39 -18 76 -18 203 0 147 1 157 25 199 50 90
174 124 265 73z"/>
<path fill="#7F7F7F" d="M28468 2599 l-98 -49 0 -110 0 -110 -65 0 -65 0 0 -90 0 -90 65 0 65
0 0 -293 c0 -371 7 -400 108 -451 46 -23 141 -24 230 -2 39 10 72 19 72 20 -1
0 -9 30 -19 66 -20 71 -21 72 -106 56 -29 -5 -46 -3 -60 8 -19 14 -20 28 -23
305 l-3 291 91 0 90 0 0 90 0 90 -90 0 -90 0 -2 159 -3 159 -97 -49z"/>
<path fill="#7F7F7F" d="M34390 2647 c0 -2 -99 -280 -220 -618 -121 -338 -220 -617 -220 -621
0 -5 44 -8 98 -8 l97 0 51 148 51 147 231 3 231 2 48 -150 47 -150 104 0 c84
0 103 3 99 14 -3 7 -104 288 -224 625 l-218 611 -87 0 c-49 0 -88 -1 -88 -3z
m174 -515 c42 -123 76 -226 76 -228 0 -7 -320 -4 -320 4 -1 21 155 461 161
455 4 -5 41 -109 83 -231z"/>
<path fill="#7F7F7F" d="M42390 2025 l0 -625 105 0 105 0 2 444 3 445 290 -442 291 -442 102
-3 102 -3 0 626 0 625 -100 0 -100 0 0 -447 c0 -245 -3 -443 -7 -439 -5 4
-136 204 -293 444 l-286 437 -107 3 -107 3 0 -626z"/>
<path fill="#7F7F7F" d="M44768 2602 l-98 -45 0 -113 0 -114 -65 0 -65 0 0 -90 0 -90 65 0 65
0 0 -305 c0 -332 3 -350 57 -407 34 -36 84 -52 158 -51 68 1 185 30 185 47 0
22 -36 137 -41 132 -3 -3 -30 -10 -59 -16 -43 -8 -58 -7 -77 5 l-23 15 0 290
0 290 90 0 90 0 0 90 0 90 -90 0 -90 0 -2 158 -3 159 -97 -45z"/>
<path fill="#7F7F7F" d="M48510 2025 l0 -625 100 0 100 0 0 183 c0 179 1 184 23 205 13 12 28
22 34 22 6 0 63 -92 127 -205 l117 -205 115 0 c63 0 114 2 114 5 0 2 -74 125
-165 273 -90 148 -165 274 -167 279 -2 6 65 84 147 174 83 90 156 172 164 182
13 16 6 17 -115 17 l-129 0 -125 -145 c-69 -79 -128 -144 -132 -145 -5 0 -8
137 -8 305 l0 305 -100 0 -100 0 0 -625z"/>
<path fill="#7F7F7F" d="M49470 2535 l0 -115 100 0 100 0 0 115 0 115 -100 0 -100 0 0 -115z"/>
<path fill="#7F7F7F" d="M15153 2332 c-84 -30 -136 -81 -184 -177 -23 -47 -40 -87 -38 -89 9
-9 180 -53 183 -47 2 3 9 23 15 43 15 46 69 95 115 104 47 8 114 -14 138 -47
11 -14 22 -44 25 -66 7 -52 -1 -57 -150 -88 -62 -13 -128 -31 -147 -39 -106
-44 -170 -132 -178 -246 -13 -187 81 -291 267 -294 85 -1 149 23 195 75 20 21
38 39 40 39 2 0 7 -12 11 -27 16 -67 27 -73 131 -73 53 0 94 3 92 8 -55 106
-59 130 -67 422 -7 238 -10 271 -30 321 -29 76 -88 141 -153 169 -73 32 -194
37 -265 12z m267 -537 c0 -67 -21 -136 -53 -172 -39 -45 -82 -63 -146 -63 -65
0 -100 28 -108 87 -5 38 -2 46 28 76 27 27 50 37 109 51 41 9 93 25 115 36 54
25 55 25 55 -15z"/>
<path fill="#7F7F7F" d="M16254 2329 c-28 -10 -69 -35 -91 -54 -22 -19 -43 -31 -47 -28 -3 3
-6 24 -6 45 l0 38 -95 0 -95 0 0 -465 0 -465 94 0 94 0 4 303 c3 263 6 307 21
342 33 72 85 109 173 120 67 8 112 -15 142 -75 21 -43 22 -52 22 -367 l0 -323
100 0 100 0 0 328 c0 344 -4 382 -48 468 -64 126 -231 186 -368 133z"/>
<path fill="#7F7F7F" d="M18324 2330 c-28 -11 -69 -36 -91 -55 -23 -19 -44 -35 -47 -35 -3 0
-6 20 -6 45 l0 45 -95 0 -95 0 0 -465 0 -465 94 0 94 0 4 303 c3 263 6 307 21
342 33 72 85 109 173 120 67 8 112 -15 142 -75 21 -43 22 -52 22 -367 l0 -323
100 0 100 0 0 328 c0 344 -4 383 -48 468 -25 49 -88 108 -139 130 -62 26 -169
28 -229 4z"/>
<path fill="#7F7F7F" d="M20747 2340 c-101 -26 -198 -104 -242 -195 -58 -119 -79 -302 -51
-435 32 -151 99 -245 215 -299 50 -23 68 -26 166 -26 129 0 181 18 254 88 37
36 117 175 106 185 -2 2 -44 16 -94 32 l-90 28 -12 -37 c-37 -116 -143 -162
-249 -108 -36 17 -50 33 -72 77 -14 30 -29 72 -33 93 l-6 37 287 0 286 0 -7
98 c-17 241 -85 376 -223 439 -59 28 -172 38 -235 23z m126 -179 c66 -16 108
-68 121 -148 l6 -43 -175 0 c-175 0 -175 0 -175 23 0 28 42 118 63 136 19 15
84 40 107 40 8 0 32 -3 53 -8z"/>
<path fill="#7F7F7F" d="M23874 2336 c-58 -18 -125 -67 -157 -113 -28 -41 -81 -152 -76 -158
2 -2 44 -14 92 -28 l88 -25 10 27 c38 106 110 149 200 120 51 -17 79 -51 86
-107 5 -40 4 -43 -28 -56 -19 -8 -81 -24 -139 -36 -166 -35 -238 -80 -284
-179 -31 -67 -30 -209 1 -268 45 -84 127 -126 247 -127 82 0 131 18 187 71
l47 44 7 -28 c16 -67 27 -73 130 -73 52 0 95 3 95 8 0 4 -6 16 -14 27 -38 55
-48 126 -55 395 -7 243 -10 270 -31 324 -28 73 -78 130 -144 164 -62 31 -194
41 -262 18z m254 -570 c-11 -130 -71 -197 -182 -204 -54 -4 -66 -1 -90 19 -19
17 -29 37 -33 66 -5 38 -2 46 28 76 27 27 50 37 109 51 41 9 93 25 115 36 22
10 44 19 49 19 5 1 6 -28 4 -63z"/>
<path fill="#7F7F7F" d="M25931 2334 c-147 -39 -235 -129 -288 -294 -21 -65 -28 -246 -14
-322 39 -198 173 -320 368 -335 125 -10 246 26 326 97 138 121 172 453 68 658
-85 166 -273 246 -460 196z m226 -196 c52 -34 80 -92 95 -196 21 -146 -16
-293 -88 -349 -45 -34 -127 -49 -184 -33 -55 15 -120 78 -138 135 -20 62 -26
196 -12 267 19 101 53 153 125 192 47 26 152 18 202 -16z"/>
<path fill="#7F7F7F" d="M27012 2339 c-19 -6 -54 -30 -78 -55 l-44 -46 0 46 0 46 -100 0 -100
0 0 -465 0 -465 100 0 100 0 0 293 c0 330 7 376 61 421 35 30 110 36 145 12
20 -14 22 -11 62 76 23 50 39 95 36 99 -19 32 -127 54 -182 38z"/>
<path fill="#7F7F7F" d="M27583 2336 c-92 -29 -156 -89 -204 -190 -16 -34 -29 -66 -29 -72 0
-6 39 -22 88 -36 l87 -25 29 60 c24 50 35 62 73 79 77 34 159 4 189 -68 31
-73 10 -89 -161 -124 -106 -21 -166 -45 -213 -84 -132 -112 -126 -370 11 -450
49 -29 154 -48 212 -39 60 9 122 41 155 81 l29 36 11 -30 c28 -76 24 -74 132
-74 l98 0 -24 48 c-38 75 -46 139 -46 360 0 233 -12 314 -58 396 -53 94 -153
147 -276 145 -34 0 -80 -6 -103 -13z m252 -568 c-15 -136 -71 -199 -181 -206
-60 -4 -65 -3 -94 26 -24 24 -30 39 -30 72 0 54 30 84 106 105 119 33 165 48
170 56 3 5 12 9 21 9 13 0 14 -10 8 -62z"/>
<path fill="#7F7F7F" d="M29295 2337 c-202 -52 -317 -231 -316 -493 0 -243 103 -398 296 -448
150 -40 320 -1 415 94 88 88 125 212 117 395 -5 122 -19 182 -65 271 -30 60
-122 139 -190 164 -70 27 -188 34 -257 17z m206 -190 c86 -46 134 -200 111
-359 -21 -142 -71 -209 -173 -230 -116 -23 -210 40 -244 165 -37 137 -6 325
63 390 67 62 163 76 243 34z"/>
<path fill="#7F7F7F" d="M30372 2339 c-19 -6 -54 -30 -78 -55 l-44 -46 0 46 0 46 -100 0 -100
0 0 -465 0 -465 100 0 100 0 0 293 c0 330 7 376 61 421 35 29 96 35 139 13 25
-13 25 -12 67 76 24 49 40 94 37 99 -18 30 -131 52 -182 37z"/>
<path fill="#7F7F7F" d="M32308 2335 c-189 -52 -295 -203 -314 -447 -7 -91 15 -221 50 -292
73 -149 220 -226 406 -213 252 18 392 203 377 502 -10 203 -86 348 -217 415
-97 49 -206 62 -302 35z m195 -179 c42 -17 93 -75 108 -123 17 -57 23 -231 9
-296 -20 -100 -91 -171 -181 -183 -148 -20 -240 93 -241 296 -1 157 40 257
124 299 50 24 132 28 181 7z"/>
<path fill="#7F7F7F" d="M37404 2336 c-58 -18 -125 -67 -157 -113 -28 -41 -81 -152 -76 -158
2 -2 44 -14 92 -28 l88 -25 10 27 c38 106 110 149 200 120 51 -17 79 -51 86
-107 5 -40 4 -43 -28 -56 -19 -8 -81 -24 -139 -36 -166 -35 -238 -80 -284
-179 -31 -67 -30 -209 1 -268 45 -84 127 -126 247 -127 82 0 131 18 187 71
l47 44 7 -28 c16 -67 27 -73 130 -73 52 0 95 3 95 8 0 4 -6 16 -14 27 -38 55
-48 126 -55 395 -7 243 -10 270 -31 324 -28 73 -78 130 -144 164 -62 31 -194
41 -262 18z m254 -570 c-11 -130 -71 -197 -182 -204 -54 -4 -66 -1 -90 19 -19
17 -29 37 -33 66 -5 38 -2 46 28 76 27 27 50 37 109 51 41 9 93 25 115 36 22
10 44 19 49 19 5 1 6 -28 4 -63z"/>
<path fill="#7F7F7F" d="M38494 2329 c-28 -10 -69 -35 -92 -55 l-42 -36 0 46 0 46 -100 0
-100 0 0 -465 0 -465 100 0 100 0 0 305 c0 321 3 349 48 398 26 29 84 55 138
62 57 7 105 -13 138 -58 20 -27 21 -43 24 -368 l3 -339 99 0 100 0 0 328 c0
364 -6 410 -61 492 -77 113 -226 159 -355 109z"/>
<path fill="#7F7F7F" d="M39405 2337 c-68 -23 -101 -44 -148 -97 -82 -91 -124 -253 -114 -440
15 -290 144 -431 381 -418 155 9 240 85 291 262 9 32 15 60 12 62 -5 5 -162
44 -177 44 -4 0 -11 -17 -15 -37 -10 -60 -44 -122 -76 -138 -15 -8 -49 -15
-75 -15 -41 0 -51 5 -80 36 -52 55 -67 121 -62 278 3 116 7 138 30 188 44 96
132 127 198 72 31 -27 60 -81 60 -115 0 -25 20 -24 110 11 84 31 83 28 49 122
-44 121 -138 189 -269 195 -44 2 -91 -3 -115 -10z"/>
<path fill="#7F7F7F" d="M40317 2340 c-140 -36 -239 -144 -284 -311 -24 -90 -24 -283 1 -364
39 -129 99 -204 205 -254 50 -23 68 -26 166 -26 98 0 116 3 165 26 73 35 126
89 166 173 19 38 32 71 30 74 -2 2 -45 16 -95 32 l-90 28 -12 -37 c-36 -113
-139 -160 -246 -112 -45 21 -86 80 -98 141 -3 19 -9 43 -11 53 -5 16 13 17
282 17 l287 0 -7 100 c-16 237 -86 375 -223 437 -60 28 -173 39 -236 23z m176
-198 c34 -20 62 -70 72 -129 l7 -43 -176 0 c-176 0 -176 0 -176 23 0 28 42
118 63 136 51 42 150 48 210 13z"/>
<path fill="#7F7F7F" d="M43928 2335 c-183 -50 -290 -229 -290 -485 -1 -252 97 -409 282 -456
142 -36 296 0 375 88 40 43 102 164 91 176 -4 4 -46 19 -94 33 l-87 26 -11
-32 c-31 -90 -85 -135 -162 -135 -52 0 -90 15 -124 47 -30 28 -68 118 -68 158
l0 25 281 0 282 0 -6 113 c-8 158 -43 268 -109 343 -85 96 -228 136 -360 99z
m187 -193 c36 -21 75 -93 75 -139 l0 -33 -175 0 -174 0 6 33 c8 42 36 98 61
120 52 47 143 55 207 19z"/>
<path fill="#7F7F7F" d="M47053 2335 c-78 -22 -129 -51 -180 -101 -165 -166 -180 -553 -26
-724 58 -64 110 -95 198 -116 177 -41 359 16 445 141 144 210 97 611 -88 739
-94 65 -243 91 -349 61z m203 -184 c75 -34 112 -113 121 -256 12 -196 -57
-321 -188 -340 -96 -14 -178 33 -220 127 -20 46 -24 69 -24 168 0 128 17 197
63 252 55 65 165 87 248 49z"/>
<path fill="#7F7F7F" d="M48132 2339 c-18 -5 -53 -31 -78 -56 l-44 -47 0 47 0 47 -100 0 -100
0 0 -465 0 -465 99 0 100 0 3 313 c4 340 7 361 64 406 32 25 109 29 140 6 21
-14 23 -11 63 76 23 49 39 94 36 99 -21 33 -127 56 -183 39z"/>
<path fill="#7F7F7F" d="M50340 2341 c-41 -13 -92 -42 -132 -73 l-38 -30 0 46 0 46 -100 0
-100 0 0 -465 0 -465 100 0 100 0 0 288 c0 334 5 367 69 425 74 67 205 71 250
8 35 -49 41 -107 41 -418 l0 -303 100 0 100 0 0 308 c0 180 -5 333 -11 368
-31 167 -133 263 -289 270 -36 2 -76 0 -90 -5z"/>
<path fill="#7F7F7F" d="M51237 2330 c-162 -51 -253 -202 -264 -435 -8 -170 24 -279 108 -370
102 -110 305 -136 433 -55 l46 30 0 -28 c0 -34 -31 -86 -64 -107 -14 -9 -54
-22 -89 -28 -79 -13 -151 0 -234 44 -30 16 -59 29 -63 29 -5 0 -30 -28 -56
-62 l-48 -61 35 -30 c19 -16 68 -46 109 -66 l75 -36 135 0 c115 1 143 4 191
23 79 32 132 81 171 160 l33 67 3 462 3 463 -101 0 -100 0 0 -35 c0 -43 -8
-44 -45 -5 -56 59 -169 75 -278 40z m241 -189 c59 -42 76 -90 80 -231 5 -144
-8 -216 -46 -261 -33 -41 -78 -59 -142 -59 -144 0 -218 110 -208 309 7 140 42
212 123 256 45 24 151 17 193 -14z"/>
<path fill="#7F7F7F" d="M14460 1865 l0 -465 105 0 105 0 0 465 0 465 -105 0 -105 0 0 -465z"/>
<path fill="#7F7F7F" d="M16980 1837 c0 -370 -3 -496 -12 -505 -7 -7 -33 -12 -59 -12 l-47 0
-7 -69 c-4 -39 -4 -74 -1 -80 11 -17 111 -34 157 -27 70 11 119 44 148 101
l26 49 3 518 3 518 -105 0 -106 0 0 -493z"/>
<path fill="#7F7F7F" d="M17480 1865 l0 -465 105 0 105 0 0 465 0 465 -105 0 -105 0 0 -465z"/>
<path fill="#7F7F7F" d="M21374 2293 c8 -21 80 -215 160 -430 l147 -393 -41 -70 c-29 -49 -48
-72 -66 -76 -25 -6 -96 0 -125 11 -11 4 -19 -10 -32 -59 -9 -35 -17 -69 -17
-74 0 -6 25 -20 55 -31 65 -24 160 -28 209 -7 45 19 99 76 130 139 14 29 106
271 205 540 l178 487 -103 0 -102 0 -30 -97 c-17 -54 -59 -190 -93 -303 -34
-113 -65 -208 -68 -212 -3 -4 -53 132 -111 302 l-105 310 -102 0 -102 0 13
-37z"/>
<path fill="#7F7F7F" d="M30675 2313 c3 -10 76 -204 161 -431 l154 -413 -40 -70 c-29 -48 -48
-71 -66 -75 -25 -7 -96 0 -125 11 -12 5 -20 -10 -36 -69 l-19 -75 45 -18 c32
-12 72 -18 131 -18 79 0 88 2 127 30 65 47 97 106 172 310 38 105 121 331 185
504 64 173 116 318 116 323 0 4 -45 8 -100 8 l-99 0 -40 -127 c-22 -71 -63
-204 -92 -298 -28 -93 -55 -176 -59 -184 -5 -9 -48 107 -111 298 l-104 311
-103 0 c-95 0 -104 -2 -97 -17z"/>
<path fill="#7F7F7F" d="M36191 2318 c0 -7 69 -215 153 -463 l152 -450 85 -3 84 -2 163 457
c89 252 162 462 162 466 0 4 -46 6 -101 5 l-101 -3 -98 -328 c-54 -181 -101
-331 -104 -334 -7 -7 -3 -22 -86 277 -39 140 -80 285 -91 323 l-20 67 -99 0
c-74 0 -100 -3 -99 -12z"/>
<path fill="#7F7F7F" d="M45255 2288 c8 -24 69 -218 135 -433 67 -214 126 -405 131 -422 l11
-33 101 0 102 0 74 328 c80 355 86 375 95 352 3 -8 35 -157 71 -330 36 -173
68 -323 71 -332 5 -16 19 -18 108 -18 l103 0 160 465 159 465 -102 0 -103 0
-11 -37 c-5 -21 -49 -181 -97 -355 -47 -175 -89 -318 -92 -318 -3 0 -35 129
-69 288 -35 158 -71 317 -79 355 l-15 67 -103 0 c-90 0 -104 -2 -109 -17 -3
-10 -41 -171 -86 -357 -44 -187 -82 -342 -85 -344 -5 -5 0 -25 -100 383 l-81
330 -101 3 -102 3 14 -43z"/>
<path fill="#7F7F7F"  d="M49470 1865 l0 -465 100 0 100 0 0 465 0 465 -100 0 -100 0 0 -465z"/>
</g>
</svg>
