<svg width="849" height="849" xmlns="http://www.w3.org/2000/svg" preserveAspectRatio="xMidYMid meet" version="1.0">

 <g>
  <title>Layer 1</title>
  <g id="svg_1" fill="#000000" transform="translate(70.000000,849.000000) scale(0.100000,-0.100000)">
   <!-- 花边 -->
   <path id="svg_2" fill="#006db8" d="m3245,7664c-260,-26 -411,-50 -605,-99c-798,-201 -1504,-683 -1987,-1356c-501,-699 -727,-1574 -628,-2434c78,-680 350,-1311 797,-1849c79,-94 303,-321 403,-406c740,-630 1709,-926 2672,-815c1079,124 2032,739 2597,1674c253,417 412,887 478,1411c20,160 17,661 -6,820c-94,673 -332,1236 -738,1747c-129,163 -387,421 -549,550c-512,406 -1095,652 -1750,739c-117,15 -585,28 -684,18zm286,-112c13,-10 58,-42 101,-71l76,-52l111,55c61,31 114,56 119,56c4,0 50,-38 101,-84l94,-84l106,38c58,21 113,41 122,45c11,4 39,-23 99,-95c56,-66 89,-98 100,-95c8,2 65,15 126,28l111,24l69,-109l69,-109l70,6c39,3 97,8 131,11l60,6l54,-115c38,-83 59,-117 74,-121c12,-3 58,-6 102,-6c143,0 134,6 180,-133l40,-121l123,-22c68,-13 125,-25 127,-27c3,-2 13,-51 24,-108c11,-57 22,-113 24,-124c4,-16 31,-29 125,-60c137,-44 131,-36 131,-179c0,-44 3,-90 6,-102c4,-15 38,-36 121,-74l115,-54l-6,-60c-3,-34 -8,-92 -11,-131l-6,-70l109,-69l109,-69l-24,-111c-13,-61 -26,-118 -28,-126c-3,-10 30,-44 95,-99c73,-61 99,-89 95,-100c-4,-9 -24,-64 -45,-122l-37,-105l83,-94c46,-52 84,-98 84,-102c0,-5 -25,-58 -55,-119l-56,-110l71,-103c38,-57 70,-106 70,-110c0,-4 -32,-53 -71,-110l-71,-103l56,-111c31,-61 56,-115 56,-119c0,-5 -38,-49 -84,-100l-84,-91l44,-123c24,-67 41,-125 36,-128c-5,-3 -49,-41 -99,-84l-90,-77l24,-113c13,-61 26,-118 28,-125c3,-8 -38,-41 -106,-85l-111,-72l7,-70c3,-38 8,-96 11,-128l6,-57l-112,-54c-62,-30 -117,-61 -121,-68c-5,-7 -9,-56 -10,-108c-2,-145 4,-137 -134,-184l-119,-41l-22,-124c-13,-68 -24,-124 -26,-126c-2,-1 -59,-13 -128,-26l-125,-24l-39,-120c-21,-66 -39,-121 -40,-122c-1,-1 -59,-5 -130,-9l-128,-7l-57,-116c-31,-64 -61,-115 -66,-115c-6,1 -64,5 -130,9l-120,7l-65,-102c-36,-57 -70,-104 -75,-107c-6,-2 -65,8 -130,22l-120,26l-42,-48c-24,-26 -60,-69 -80,-95c-21,-26 -43,-47 -50,-48c-7,0 -62,18 -124,40c-61,22 -117,37 -123,33c-6,-4 -50,-42 -98,-85l-86,-79l-111,55c-61,31 -115,56 -120,56c-5,0 -56,-32 -112,-71l-102,-70l-103,70c-56,39 -108,71 -114,71c-7,0 -59,-25 -116,-56c-62,-33 -109,-52 -116,-48c-7,4 -52,43 -100,87l-87,79l-112,-41c-62,-23 -118,-41 -125,-41c-9,0 -138,142 -165,183c-4,5 -60,-2 -133,-18c-70,-15 -129,-26 -130,-24c-2,2 -34,51 -71,108l-68,103l-111,-6c-61,-4 -119,-10 -129,-12c-14,-5 -28,16 -73,114l-56,119l-127,7c-69,4 -129,10 -133,14c-3,4 -23,59 -42,123l-37,115l-127,25l-127,24l-24,127l-25,127l-115,37c-64,19 -119,39 -123,42c-4,4 -10,64 -14,133l-7,127l-119,56c-98,45 -119,59 -114,73c2,10 8,68 12,129l6,111l-103,68c-57,37 -106,69 -108,71c-2,1 9,60 24,129c15,70 25,128 23,129c-37,26 -188,162 -188,170c0,7 18,63 41,125l41,112l-79,87c-44,48 -83,93 -87,100c-4,7 15,54 48,116c31,57 56,109 56,116c0,6 -32,58 -71,114l-70,103l70,102c39,56 71,107 71,112c0,5 -25,59 -56,120l-55,111l79,86c43,48 81,92 85,98c4,6 -11,62 -33,123c-22,62 -40,117 -40,124c1,7 22,29 48,50c26,20 69,56 95,80l48,42l-25,118c-14,65 -26,122 -26,127c0,5 48,39 106,77l105,68l-6,120c-4,66 -8,124 -9,129c0,6 51,36 115,67l116,57l7,129l8,129l121,40l122,40l24,125c13,68 25,125 26,127c1,1 58,12 126,25l124,23l41,119c47,138 39,132 184,134c52,1 101,5 108,10c7,4 38,59 68,121l54,112l53,-6c28,-3 86,-8 128,-12l76,-6l67,106c52,82 73,106 89,106c12,-1 70,-11 130,-24l107,-24l82,97c45,53 82,97 83,99c1,1 57,-18 124,-42l123,-44l91,84c51,46 95,84 100,84c4,0 58,-25 119,-56l111,-56l101,70c56,39 106,71 112,71c6,1 22,-7 35,-17z"/>
   <path id="svg_3" fill="#006db8" d="m3387,7400l-98,-69l-103,55c-57,30 -108,54 -115,54c-7,0 -53,-37 -102,-81l-89,-82l-117,42l-118,42l-50,-57c-27,-32 -66,-75 -85,-96l-35,-37l-110,24c-60,13 -115,25 -122,25c-6,0 -42,-48 -79,-106c-65,-102 -68,-105 -98,-100c-17,2 -74,8 -126,11l-95,6l-50,-108c-27,-59 -54,-111 -60,-115c-5,-4 -53,-8 -105,-9c-146,-2 -139,4 -180,-129c-40,-130 -22,-115 -191,-145l-95,-17l-13,-76c-7,-43 -17,-98 -23,-125l-10,-47l-118,-37l-118,-38l-7,-127l-7,-126l-115,-53l-115,-53l6,-41c3,-22 8,-78 11,-125l7,-85l-106,-68c-90,-58 -105,-72 -101,-90c20,-89 45,-208 45,-216c0,-5 -42,-46 -94,-90l-93,-81l41,-119l41,-119l-85,-92l-84,-93l58,-111l59,-112l-72,-103l-72,-104l71,-103l71,-103l-56,-112c-64,-127 -70,-99 42,-223c35,-37 63,-74 63,-81c0,-8 -18,-63 -39,-123l-40,-110l95,-79c51,-43 94,-83 94,-89c0,-6 -11,-62 -25,-124c-14,-62 -24,-114 -23,-115c2,-2 50,-33 107,-70l103,-68l-6,-76c-4,-42 -9,-97 -12,-124l-6,-47l114,-54l113,-54l10,-127l10,-127l110,-35c61,-19 114,-38 118,-42c4,-4 18,-61 30,-127l23,-118l118,-23c66,-12 123,-26 127,-30c4,-4 23,-57 42,-118l35,-110l127,-10l128,-10l53,-113l53,-114l38,6c21,3 77,8 124,11l86,7l68,-104c37,-57 68,-104 70,-106c1,-1 53,9 115,23c62,14 118,25 124,25c6,0 46,-43 89,-94l79,-95l110,40c60,21 115,39 123,39c7,0 44,-28 81,-62c124,-113 96,-107 223,-43l112,56l103,-71l104,-71l103,72l103,73l112,-59l111,-59l93,84l92,85l119,-41l119,-41l81,93c44,52 85,94 90,94c10,0 194,-38 220,-46c12,-3 35,24 85,102l69,106l85,-7c47,-3 103,-8 125,-11l41,-6l53,115l53,115l126,7l127,7l38,118l37,118l47,10c27,6 82,16 124,23l77,13l23,125l24,125l110,34c61,18 114,38 120,43c5,5 12,62 15,127l5,117l113,55l113,55l-6,95c-3,52 -9,109 -11,126c-5,30 -2,33 100,98c58,37 106,73 106,79c0,7 -12,62 -25,122l-25,110l62,55c34,30 77,69 96,85l33,30l-41,118l-42,118l81,88c44,49 81,95 81,102c0,7 -24,58 -54,115l-55,103l70,100c38,55 69,104 69,108c0,4 -31,53 -69,107l-70,100l55,106c30,59 54,111 54,116c0,5 -36,48 -80,97c-44,48 -80,89 -80,92c0,2 19,56 42,121c35,101 39,118 26,128c-8,6 -51,42 -96,80c-65,54 -81,73 -77,90c31,139 45,212 41,221c-2,7 -50,41 -106,76c-96,61 -101,65 -96,94c3,17 8,73 11,125l7,95l-113,55l-114,55l-6,122c-3,68 -7,125 -10,127c-2,2 -56,20 -120,40l-116,37l-22,124l-23,123l-123,23l-124,22l-37,116c-20,64 -38,118 -40,120c-2,3 -59,7 -127,10l-122,6l-55,113l-54,114l-91,-7c-49,-3 -106,-8 -125,-11c-35,-4 -35,-4 -99,97c-35,55 -69,103 -76,105c-6,3 -63,-7 -125,-21c-62,-14 -114,-25 -115,-25c-2,0 -130,149 -152,177c-10,13 -26,10 -126,-26c-63,-22 -117,-41 -120,-41c-4,0 -46,36 -94,80c-49,44 -91,80 -96,80c-4,0 -56,-24 -115,-54l-109,-54l-99,69c-54,38 -103,69 -109,68c-5,0 -54,-31 -108,-69zm350,-170c1273,-104 2338,-970 2698,-2195c181,-613 159,-1288 -61,-1903c-98,-276 -300,-634 -490,-872c-146,-182 -406,-430 -590,-562c-405,-290 -848,-471 -1349,-550c-122,-20 -179,-22 -445,-22c-342,0 -456,12 -725,78c-1139,281 -2020,1190 -2264,2336c-116,549 -76,1147 114,1675c56,158 200,453 289,593c453,715 1169,1208 1996,1372c125,25 198,34 400,53c82,8 309,6 427,-3z"/>
   <path id="svg_4" fill="#006db8" d="m3362,7003c-16,-30 -32,-121 -32,-177c0,-74 16,-150 44,-211c22,-48 26,-52 54,-47l31,4l-19,47c-31,79 -44,200 -31,284c6,39 14,82 17,95c6,19 3,22 -24,22c-20,0 -35,-7 -40,-17z"/>
   <path id="svg_5" fill="#006db8" d="m3517,6913c-4,-60 -10,-160 -13,-224l-7,-117l46,-3c53,-5 57,1 57,94c0,54 2,58 23,56c58,-5 88,2 121,31c77,68 65,220 -19,256c-21,8 -68,14 -118,14l-84,0l-6,-107zm167,1c36,-35 6,-104 -45,-104c-29,0 -29,0 -29,60c0,60 0,60 29,60c16,0 37,-7 45,-16z"/>
   <path id="svg_6" fill="#006db8" d="m3065,6991c-17,-7 -22,-23 -30,-102l-11,-94l-36,70c-55,107 -55,106 -108,93c-25,-6 -47,-12 -49,-14c-2,-2 32,-59 77,-126c74,-113 82,-130 96,-207c8,-46 17,-85 18,-87c2,-1 22,0 46,3c49,7 49,9 28,121c-13,71 -13,75 20,205c18,72 34,135 34,140c0,9 -59,8 -85,-2z"/>
   <path id="svg_7" fill="#006db8" d="m3856,6908c-49,-275 -63,-358 -61,-358c1,0 51,-9 111,-20c60,-11 114,-20 121,-20c6,0 14,19 18,41c9,50 3,55 -78,64l-59,7l5,40c3,22 8,42 11,45c2,3 31,1 63,-5c32,-6 61,-7 64,-4c4,4 9,26 13,48l6,42l-38,6c-99,17 -95,14 -87,54c4,21 8,38 8,39c1,1 33,-4 70,-11c67,-13 67,-13 72,11c3,12 7,34 10,47c5,23 1,25 -47,35c-70,14 -170,31 -179,31c-3,0 -14,-42 -23,-92z"/>
   <path id="svg_8" fill="#006db8" d="m4191,6907c-22,-72 -112,-409 -109,-411c14,-10 84,-24 89,-18c13,15 119,426 112,433c-4,4 -25,12 -45,17c-36,10 -37,9 -47,-21z"/>
   <path id="svg_9" fill="#006db8" d="m2745,6925c-5,-2 -63,-20 -128,-41c-64,-20 -120,-40 -123,-45c-3,-5 1,-27 7,-50c13,-43 14,-44 86,-23c20,6 25,-4 73,-158c29,-89 53,-164 55,-166c2,-3 80,17 92,23c1,0 -23,77 -53,170c-29,94 -54,171 -54,171c0,1 21,7 46,14c40,12 45,16 40,36c-8,30 -25,74 -28,73c-2,0 -7,-2 -13,-4z"/>
   <path id="svg_10" fill="#006db8" d="m4347,6751l6,-148l-32,-83c-17,-46 -30,-84 -29,-85c4,-4 79,-35 83,-35c2,0 18,37 35,83c29,76 39,90 137,189l106,106l-29,15c-68,34 -68,34 -130,-48c-31,-41 -57,-75 -59,-75c-1,0 0,44 3,98l4,97l-51,17l-51,16l7,-147z"/>
   <path id="svg_11" fill="#006db8" d="m2368,6793c-21,-9 -38,-19 -38,-23c0,-5 40,-101 88,-213l88,-206l42,19c23,11 42,23 42,27c0,15 -173,413 -179,412c-3,-1 -23,-8 -43,-16z"/>
   <path id="svg_12" fill="#006db8" d="m4597,6558c-81,-94 -147,-175 -147,-178c0,-4 19,-15 41,-26l42,-18l34,39l33,39l45,-22l44,-21l-14,-48c-8,-26 -15,-49 -15,-50c0,-10 84,-53 90,-46c4,4 32,108 62,229l55,221l-54,27c-29,14 -57,26 -61,26c-5,0 -74,-77 -155,-172zm144,-18c-11,-40 -22,-74 -24,-77c-10,-9 -57,21 -52,34c7,20 88,123 93,118c2,-2 -6,-36 -17,-75z"/>
   <path id="svg_13" fill="#006db8" d="m2163,6690c-92,-41 -120,-103 -85,-183c26,-58 64,-79 145,-78c69,0 97,-11 97,-39c0,-26 -55,-60 -97,-60c-18,0 -33,-1 -33,-3c0,-2 7,-25 16,-51c16,-47 17,-48 53,-41c48,9 114,48 135,80c29,44 31,88 6,140c-28,59 -65,78 -150,79c-73,1 -90,8 -90,36c0,20 34,42 82,54c26,6 27,7 14,44c-15,45 -35,49 -93,22z"/>
   <path id="svg_14" fill="#006db8" d="m4910,6390c-73,-99 -130,-186 -127,-193c3,-7 18,-20 35,-29l29,-18l89,125c48,68 89,123 90,122c1,-1 -16,-69 -37,-152c-21,-82 -39,-155 -39,-161c0,-6 18,-25 39,-42l40,-32l135,186l135,186l-28,24c-16,13 -33,24 -38,24c-10,0 -31,-26 -117,-150c-32,-47 -55,-74 -52,-60c4,14 22,83 41,154l34,130l-21,15c-12,9 -34,24 -49,34l-27,18l-132,-181z"/>
   <path id="svg_15" fill="#006db8" d="m1825,6481c-33,-22 -73,-51 -89,-64l-28,-23l127,-174c70,-96 131,-179 136,-184c9,-10 79,33 79,48c0,5 -17,32 -38,60c-54,72 -56,77 -41,87c26,16 49,9 92,-29c73,-66 68,-64 115,-33l42,27l-67,58c-36,31 -79,60 -94,63c-27,5 -28,8 -23,43c11,71 -44,145 -118,157c-27,4 -44,-3 -93,-36zm105,-81c31,-31 26,-68 -11,-97c-13,-11 -21,-6 -48,32c-34,47 -33,61 3,75c31,13 34,12 56,-10z"/>
   <path id="svg_16" fill="#006db8" d="m1533,6238l-82,-83l159,-165l158,-165l89,87l90,87l-33,32l-33,32l-56,-48l-56,-48l-30,28l-29,29l47,48l47,48l-24,27c-14,16 -28,32 -32,38c-5,5 -28,-11 -56,-38l-48,-47l-27,28l-27,28l50,49l50,49l-32,33c-18,18 -35,33 -38,33c-3,0 -42,-37 -87,-82z"/>
   <path id="svg_17" fill="#006db8" d="m5350,6230c-75,-14 -159,-80 -194,-154c-22,-47 -24,-122 -3,-162c20,-38 83,-97 126,-119l34,-17l86,86l86,86l-50,50l-49,50l-35,-34c-33,-33 -34,-36 -18,-54c16,-17 15,-20 -12,-46l-30,-28l-25,25c-70,70 16,217 127,217c32,0 46,-7 77,-37c20,-21 39,-44 41,-52c4,-11 13,-9 42,10c20,13 37,29 37,35c0,19 -61,93 -93,113c-42,26 -103,39 -147,31z"/>
   <path id="svg_18" fill="#006db8" d="m3434,6134c-168,-129 -215,-162 -279,-196c-238,-124 -429,-139 -679,-52c-55,19 -103,34 -108,34c-22,0 -141,-277 -208,-485c-48,-147 -123,-461 -115,-476c4,-5 12,-9 18,-9c21,0 161,-70 185,-93c71,-66 68,-156 -7,-220c-29,-24 -151,-77 -215,-93l-29,-7l6,-161c20,-580 230,-1048 667,-1486c155,-156 253,-237 432,-357c119,-80 365,-213 393,-213c21,0 227,105 326,166c227,140 488,367 661,574c106,126 234,320 301,455c131,262 193,527 212,893l6,122l-28,10c-154,55 -201,78 -235,112c-44,44 -55,87 -35,143c18,50 63,87 163,130c43,19 80,41 82,49c5,23 -75,340 -120,476c-73,222 -180,470 -203,470c-6,0 -47,-13 -91,-29c-329,-120 -591,-62 -924,204c-58,47 -108,84 -111,85c-3,0 -32,-21 -65,-46zm150,-149c156,-121 331,-210 474,-241c134,-28 317,-16 465,31c35,12 61,15 66,9c18,-18 99,-221 145,-361c38,-118 106,-369 106,-395c0,-4 -30,-21 -66,-39c-36,-18 -85,-51 -108,-73c-151,-148 -75,-335 178,-436l58,-23l-7,-106c-14,-226 -47,-400 -110,-580c-175,-500 -638,-1008 -1172,-1283l-113,-58l-37,15c-70,30 -208,109 -318,183c-451,304 -801,737 -943,1165c-67,200 -107,439 -100,595l3,73l73,31c84,35 172,109 204,172c62,118 -4,248 -166,328l-63,31l19,86c48,214 153,525 224,663l14,28l49,-20c133,-52 355,-66 494,-31c155,40 308,120 467,245c40,31 74,56 77,56c2,0 42,-29 87,-65z"/>
   <path id="svg_19" fill="#006db8" d="m3443,5905c-124,-98 -309,-189 -473,-232c-129,-34 -327,-37 -440,-5c-41,11 -78,17 -82,14c-11,-11 -83,-199 -116,-302c-26,-82 -82,-289 -82,-303c0,-3 24,-18 53,-35c64,-36 132,-108 160,-170c32,-71 30,-170 -5,-243c-36,-72 -127,-159 -212,-201c-76,-37 -74,-29 -55,-196c15,-137 44,-275 84,-400c136,-417 479,-839 921,-1134c114,-77 281,-168 307,-168c8,0 63,24 123,54c507,249 980,815 1119,1338c36,135 54,246 61,368l6,105l-67,34c-286,146 -320,438 -69,603c35,23 64,49 64,58c0,22 -46,190 -81,300c-24,72 -105,286 -113,296c-1,1 -35,-7 -76,-18c-90,-24 -292,-29 -385,-10c-168,36 -371,127 -509,228c-41,30 -78,54 -83,53c-4,0 -27,-15 -50,-34zm-661,-477c32,-25 77,-203 98,-387c19,-157 8,-560 -20,-736c-21,-138 -57,-319 -79,-402c-13,-48 -41,-69 -70,-54c-28,15 -31,32 -15,97c31,132 56,266 75,394c35,241 38,733 4,687c-36,-49 -87,-255 -111,-447c-10,-84 -18,-118 -31,-127c-23,-18 -37,-16 -58,7c-16,18 -16,27 -5,122c30,248 91,458 160,549l37,50l-13,57c-7,32 -20,77 -29,101c-19,55 -19,66 1,85c19,19 35,20 56,4zm383,-5c18,-18 18,-19 -18,-153l-24,-85l43,-62c70,-102 135,-342 159,-583c6,-58 5,-67 -14,-84c-17,-16 -25,-17 -45,-8c-20,9 -26,21 -30,59c-29,229 -64,393 -107,488l-22,50l-9,-60c-5,-33 -7,-161 -4,-285c6,-271 31,-458 100,-754c16,-65 13,-82 -15,-97c-29,-15 -57,6 -70,54c-65,242 -100,501 -106,788c-7,310 10,477 68,659c27,86 58,110 94,73zm407,0c51,-58 85,-314 61,-456c-7,-46 -42,-74 -70,-58c-16,9 -18,26 -19,168c0,132 -4,170 -22,230c-26,87 -27,97 -6,117c20,21 37,20 56,-1zm146,0c30,-25 62,-158 69,-278c4,-83 0,-131 -27,-290c-47,-277 -46,-505 6,-869c15,-107 15,-109 -5,-129c-17,-17 -24,-19 -44,-10c-20,9 -27,23 -36,75c-31,177 -44,345 -45,553c0,205 2,233 33,410c37,212 37,282 1,413c-25,88 -25,118 -2,131c23,14 27,14 50,-6zm151,-2c23,-23 59,-169 67,-272c8,-96 -9,-219 -32,-236c-23,-17 -28,-16 -53,5c-20,16 -21,22 -13,102c11,103 1,206 -29,307l-23,76l23,18c29,24 36,24 60,0zm259,-87c14,-46 26,-120 29,-177l6,-98l36,3l36,3l7,95c8,116 44,247 74,267c19,12 24,11 45,-6l24,-19l-24,-88c-13,-49 -26,-126 -29,-171l-5,-83l40,0c44,0 63,-14 63,-47c0,-32 -28,-43 -109,-43l-71,0l0,-85l0,-85l71,0c81,0 109,-11 109,-43c0,-38 -19,-47 -102,-47l-78,0l0,-90l0,-90l78,0c82,0 102,-9 102,-45c0,-36 -20,-45 -102,-45l-78,0l0,-282c0,-248 -2,-284 -17,-300c-22,-24 -49,-23 -67,4c-14,19 -16,65 -16,300l0,278l-78,0c-82,0 -102,9 -102,45c0,36 20,45 102,45l78,0l0,90l0,90l-78,0c-83,0 -102,9 -102,47c0,32 28,43 109,43l71,0l0,85l0,85l-71,0c-81,0 -109,11 -109,43c0,33 19,47 63,47l40,0l-6,83c-3,45 -16,118 -27,161c-23,85 -21,122 8,129c35,8 57,-19 80,-99zm-552,-606c4,-7 7,-100 5,-207c-1,-123 4,-249 13,-338c9,-79 13,-150 10,-158c-9,-22 -53,-30 -70,-13c-41,41 -68,641 -32,711c10,20 63,24 74,5zm291,0c4,-7 8,-112 8,-233c1,-121 7,-275 14,-342c11,-99 11,-126 1,-138c-15,-18 -54,-20 -68,-2c-34,40 -54,673 -23,710c16,20 56,22 68,5zm-510,-1178c79,-35 106,-128 54,-184l-21,-23l20,-18c27,-25 41,-80 29,-113c-25,-65 -86,-102 -169,-102c-130,0 -214,116 -144,199l26,31l-21,29c-45,62 -14,153 64,187c43,19 113,17 162,-6zm400,-6c45,-34 66,-70 71,-123c9,-102 -44,-200 -148,-272c-57,-40 -88,-47 -108,-27c-21,21 -13,47 20,64c34,18 128,102 128,115c0,5 -13,6 -30,3c-73,-15 -157,33 -180,102c-17,50 16,115 73,144c52,26 134,23 174,-6zm-762,-209l0,-220l-23,-3c-49,-7 -52,5 -52,222c0,217 3,229 50,224l25,-3l0,-220zm1159,203c8,-13 8,-23 0,-35c-9,-14 -28,-19 -83,-21l-71,-3l0,-38c0,-38 0,-38 49,-45c92,-12 158,-83 145,-156c-14,-83 -84,-129 -196,-130c-91,0 -120,12 -116,48c3,27 4,27 95,32c98,5 133,22 133,64c0,44 -39,66 -119,66c-26,0 -52,5 -59,12c-8,8 -12,47 -12,110c0,82 3,99 18,107c9,6 59,10 111,8c77,-2 96,-5 105,-19z"/>
   <path id="svg_20" fill="#006db8" d="m3212,3474c-48,-33 -9,-89 63,-89c49,0 75,18 75,51c0,30 -35,54 -80,54c-20,0 -46,-7 -58,-16z"/>
   <path id="svg_21" fill="#006db8" d="m3223,3290c-37,-15 -46,-44 -22,-74c17,-22 29,-26 69,-26c61,0 96,25 87,62c-11,41 -79,60 -134,38z"/>
   <path id="svg_22" fill="#006db8" d="m3612,3474c-48,-33 -13,-94 55,-94c37,0 73,29 73,59c0,26 -37,51 -75,51c-17,0 -41,-7 -53,-16z"/>
   <path id="svg_23" fill="#006db8" d="m1371,6075c-17,-20 -31,-38 -31,-41c0,-3 47,-64 105,-135c57,-71 103,-129 101,-129c-2,0 -70,34 -151,77l-148,76l-28,-34c-16,-19 -29,-39 -29,-45c0,-6 93,-54 207,-107l208,-97l37,43c20,23 36,47 34,53c-4,10 -250,351 -265,367c-5,4 -22,-8 -40,-28z"/>
   <path id="svg_24" fill="#006db8" d="m5654,5809c-65,-44 -130,-90 -142,-102c-31,-29 -62,-90 -62,-122c0,-37 35,-100 67,-123c72,-50 137,-34 306,77c138,91 133,82 90,148c-14,22 -16,21 -149,-68c-149,-98 -181,-108 -210,-63c-16,24 -16,27 3,52c15,21 195,152 262,191c12,7 9,16 -16,50l-30,40l-119,-80z"/>
   <path id="svg_25" fill="#006db8" d="m1122,5754c-13,-20 -20,-40 -15,-44c4,-4 90,-62 190,-129l183,-121l26,40c15,22 25,42 23,44c-19,16 -370,246 -376,246c-5,0 -19,-16 -31,-36z"/>
   <path id="svg_26" fill="#006db8" d="m1026,5595c-11,-19 -17,-38 -13,-41c3,-3 63,-35 134,-71c70,-35 115,-62 98,-58c-16,3 -89,11 -161,18l-132,13l-25,-52l-26,-53l162,-84c89,-47 181,-94 205,-106l43,-22l14,35c8,20 15,39 15,43c0,5 -59,38 -131,73c-72,36 -133,68 -135,72c-3,4 1,6 8,3c17,-6 320,-37 323,-33c13,18 48,89 44,92c-9,8 -391,206 -397,206c-4,0 -16,-16 -26,-35z"/>
   <path id="svg_27" fill="#006db8" d="m5800,5444c-107,-51 -199,-95 -205,-97c-13,-5 21,-77 36,-77c6,0 73,29 148,65l136,66l-65,-68c-36,-37 -89,-93 -118,-124l-52,-55l21,-51l21,-51l196,94c107,51 200,95 205,97c12,4 3,45 -15,70c-12,16 -22,13 -139,-45l-126,-63l103,112c57,62 104,115 104,118c0,7 -50,105 -53,104c-1,0 -90,-43 -197,-95z"/>
   <path id="svg_28" fill="#006db8" d="m844,5214c-9,-24 -15,-46 -13,-48c2,-1 62,-22 133,-46c155,-53 191,-74 191,-115c0,-21 -7,-33 -27,-44c-25,-14 -36,-12 -183,38c-86,29 -158,52 -159,50c-10,-10 -25,-84 -18,-90c4,-4 70,-27 147,-53c150,-49 215,-57 265,-31c63,32 90,147 51,212c-27,44 -84,74 -238,127l-132,45l-17,-45z"/>
   <path id="svg_29" fill="#006db8" d="m5950,5086c-222,-79 -215,-74 -190,-140c7,-21 15,-26 27,-21c10,3 103,36 208,72c104,36 193,69 198,73c9,8 -16,83 -29,86c-5,1 -101,-30 -214,-70z"/>
   <path id="svg_30" fill="#006db8" d="m6015,4913c-110,-58 -202,-107 -204,-109c-10,-9 21,-113 35,-118c9,-3 115,-6 236,-6l220,0l-7,33c-15,73 2,68 -188,62c-95,-3 -165,-2 -157,1c8,4 78,38 156,75l143,67l-15,48c-8,26 -15,49 -17,50c-2,2 -93,-45 -202,-103z"/>
   <path id="svg_31" fill="#006db8" d="m705,4738c-14,-66 -19,-62 100,-79c61,-10 128,-18 150,-19c29,-1 -2,-11 -115,-36c-85,-20 -158,-39 -161,-42c-4,-4 -9,-31 -13,-59c-6,-49 -5,-53 16,-58c26,-5 417,-65 430,-65c4,0 8,20 8,44l0,43l-117,17c-206,30 -205,27 -35,65c84,19 158,39 166,45c8,6 16,31 18,56l3,44l-205,33c-249,39 -238,38 -245,11z"/>
   <path id="svg_32" fill="#006db8" d="m6057,4585c-103,-12 -190,-25 -193,-27c-2,-3 1,-58 8,-122l12,-117l45,3c51,3 49,-2 40,103l-4,50l41,3c46,3 54,-8 54,-80c0,-20 3,-39 8,-41c4,-2 27,-2 51,1l43,4l-6,69l-7,69l39,0l40,0l7,-69l7,-68l46,5c26,2 48,6 50,7c3,3 -18,196 -24,218c-7,21 -17,21 -257,-8z"/>
   <path id="svg_33" fill="#006db8" d="m650,4292l0,-49l167,-6c91,-4 195,-7 230,-7l63,0l0,44l0,45l-52,5c-29,3 -133,8 -230,12l-178,6l0,-50z"/>
   <path id="svg_34" fill="#006db8" d="m5890,4226c0,-41 2,-44 31,-50c17,-3 56,-6 85,-6c57,0 66,-10 42,-43c-10,-13 -129,-47 -164,-47c-2,0 -4,-23 -4,-51c0,-48 1,-51 23,-46c12,3 50,11 85,18c35,6 73,20 85,29c21,17 23,17 55,-11c27,-24 42,-29 83,-29c56,0 103,20 119,51c13,23 19,185 8,212c-7,15 -27,17 -228,17l-220,0l0,-44zm370,-86c0,-60 -89,-80 -110,-24c-19,49 -15,54 50,54c60,0 60,0 60,-30z"/>
   <path id="svg_35" fill="#006db8" d="m783,4163l-133,-4l0,-50l0,-51l169,4c189,3 196,1 194,-57l-1,-35l49,0l49,0l0,53c-1,127 -48,147 -327,140z"/>
   <path id="svg_36" fill="#006db8" d="m890,3911l-215,-36l-3,-43c-3,-38 -1,-42 21,-42c26,0 234,36 264,46c10,3 -7,-8 -37,-26c-30,-18 -94,-56 -141,-86l-86,-54l10,-55c6,-30 14,-55 18,-55c13,0 443,71 445,73c3,3 -13,77 -18,82c-1,2 -64,-7 -138,-21c-74,-13 -141,-24 -149,-24c-7,0 47,36 120,81c74,44 137,84 141,88c9,8 -2,112 -11,110c-3,-1 -103,-18 -221,-38z"/>
   <path id="svg_37" fill="#006db8" d="m5880,3908c-50,-109 -1,-218 105,-233c56,-9 104,14 140,65c38,54 59,72 79,64c14,-5 17,-15 13,-48c-2,-23 -8,-51 -12,-62c-5,-17 -2,-23 18,-28c14,-3 32,-9 41,-12c23,-9 46,52 46,122c0,50 -3,59 -33,89c-67,67 -155,55 -219,-30c-20,-26 -44,-52 -53,-57c-39,-23 -60,49 -30,102c22,38 18,46 -24,58c-52,16 -50,17 -71,-30z"/>
   <path id="svg_38" fill="#006db8" d="m5825,3638c-3,-7 -6,-28 -7,-47l-3,-33l215,-53c118,-30 218,-50 221,-47c4,4 10,25 13,47l7,40l-213,53c-117,29 -217,52 -221,52c-4,0 -10,-6 -12,-12z"/>
   <path id="svg_39" fill="#006db8" d="m977,3475c-109,-68 -200,-125 -202,-127c-3,-3 5,-33 16,-67c20,-58 23,-62 48,-57c14,3 119,13 234,23c142,12 207,21 207,29c0,6 -7,28 -15,48l-16,37l-53,-6l-53,-7l-13,46c-7,26 -11,48 -9,50c2,1 21,13 42,25c39,24 42,35 24,92l-12,36l-198,-122zm67,-97c11,-42 7,-45 -69,-57c-42,-6 -81,-11 -88,-11c-11,0 130,87 144,89c4,1 9,-9 13,-21z"/>
   <path id="svg_40" fill="#006db8" d="m5761,3408c-25,-69 -36,-60 140,-121c89,-31 164,-59 167,-61c2,-3 -2,-25 -11,-49l-15,-44l48,-15l47,-15l47,131c25,72 46,134 46,138c0,3 -20,13 -45,22c-46,15 -46,15 -55,-10c-6,-14 -10,-28 -10,-32c-1,-34 -21,-31 -174,23c-87,30 -162,55 -167,55c-5,0 -13,-10 -18,-22z"/>
   <path id="svg_41" fill="#006db8" d="m1145,3169c-82,-38 -176,-80 -207,-93l-58,-25l19,-43c11,-25 24,-42 32,-40c20,5 393,173 401,181c3,3 -3,25 -15,47l-22,42l-150,-69z"/>
   <path id="svg_42" fill="#006db8" d="m5630,3099c-12,-23 -20,-42 -18,-44c2,-1 39,-21 84,-43c75,-38 87,-48 170,-151c49,-61 91,-111 94,-111c3,0 16,20 29,45l23,44l-73,69l-74,69l100,-18c55,-9 101,-17 101,-16c1,1 11,23 22,49l20,47l-36,5c-21,3 -86,8 -147,12c-101,6 -116,9 -187,45c-43,22 -80,39 -83,39c-2,0 -14,-18 -25,-41z"/>
   <path id="svg_43" fill="#006db8" d="m1310,2997c-41,-24 -110,-62 -152,-85l-77,-43l-15,28c-33,60 -36,61 -104,15c-16,-11 -4,-37 79,-177l50,-85l39,22c46,26 47,31 20,75l-20,33l38,23c20,13 89,52 152,87c63,35 116,65 118,66c5,3 -42,84 -48,84c-3,0 -39,-19 -80,-43z"/>
   <path id="svg_44" fill="#006db8" d="m5531,2924c-10,-22 -8,-31 8,-57c50,-81 165,-165 270,-197c82,-26 95,-25 109,5c16,34 17,32 -23,39c-75,14 -198,87 -274,163c-40,40 -74,73 -76,73c-1,0 -7,-12 -14,-26z"/>
   <path id="svg_45" fill="#006db8" d="m4929,2513c-9,-2 -27,-26 -39,-54c-24,-51 -62,-96 -46,-54c30,78 13,111 -54,100c-43,-7 -44,-8 -31,-33c4,-9 11,-43 15,-74c9,-80 -4,-91 -100,-85c-87,5 -110,-4 -67,-26c37,-19 103,-92 103,-113c0,-12 -7,-14 -30,-9c-30,7 -70,-1 -70,-13c0,-4 18,-17 41,-30c22,-13 45,-34 51,-48c7,-16 19,-24 35,-24c22,0 23,3 17,35c-5,31 -3,36 20,45c20,7 26,16 25,37c-2,36 18,86 31,78c6,-4 8,-10 6,-14c-3,-4 8,-15 25,-25c35,-20 40,-6 -77,-192c-46,-72 -84,-138 -84,-147c0,-18 21,-27 61,-27c23,0 32,6 40,28c44,112 144,272 171,272c11,0 2,-49 -18,-99c-8,-18 -14,-43 -14,-55c0,-24 -49,-96 -98,-146c-18,-18 -31,-37 -29,-44c2,-6 24,-12 49,-14l46,-3l34,63c39,71 66,82 82,35c12,-34 2,-53 -45,-85c-19,-13 -35,-26 -37,-30c-1,-4 31,-5 70,-2l73,5l3,52c3,45 -1,55 -28,86c-39,45 -38,60 5,87c24,15 35,29 35,46c0,32 -25,31 -72,-1c-60,-40 -73,-34 -35,18c27,36 57,113 57,144c0,25 -25,37 -50,23c-10,-5 -55,-59 -101,-120c-45,-60 -84,-108 -87,-106c-9,10 110,204 133,216c35,19 47,68 43,184c-3,86 -6,100 -23,111c-11,6 -27,10 -36,8zm22,-60c6,-50 5,-153 -1,-163c-12,-20 -100,24 -100,49c0,11 18,42 40,70c37,47 59,62 61,44zm-181,-203c0,-5 -4,-10 -9,-10c-6,0 -13,5 -16,10c-3,6 1,10 9,10c9,0 16,-4 16,-10zm130,0c0,-5 -4,-10 -10,-10c-5,0 -10,5 -10,10c0,6 5,10 10,10c6,0 10,-4 10,-10z"/>
   <path id="svg_46" fill="#006db8" d="m2257,2443c-4,-3 -7,-22 -7,-40c0,-20 -4,-32 -10,-28c-9,6 -23,-8 -91,-88c-24,-29 -25,-29 -109,-21c-71,6 -87,11 -107,32l-23,24l-10,-26c-16,-42 -12,-84 10,-106c24,-24 53,-25 109,-5c22,8 41,11 41,6c0,-13 -53,-57 -100,-84c-70,-39 -98,-41 -155,-12c-28,14 -53,25 -57,25c-17,0 -6,-24 26,-56c28,-28 41,-34 78,-34c83,0 140,25 228,101c45,39 83,69 85,67c1,-1 -15,-43 -37,-92c-65,-148 -63,-246 6,-246c12,0 43,-7 69,-16c77,-26 89,-14 29,29l-52,37l1,97c0,54 6,121 13,148l11,50l60,2c33,1 68,2 78,2c29,1 19,15 -34,44c-35,20 -49,34 -45,44c3,8 6,15 6,16c0,1 46,1 102,0c77,-1 109,2 126,13c12,8 20,19 17,25c-11,17 -65,40 -143,60c-42,10 -81,24 -86,29c-12,12 -20,13 -29,3zm0,-189c-3,-3 -12,-4 -19,-1c-8,3 -5,6 6,6c11,1 17,-2 13,-5z"/>
   <path id="svg_47" fill="#006db8" d="m2940,2144c0,-3 4,-13 9,-22c4,-9 11,-38 14,-65c6,-46 5,-49 -35,-87c-38,-38 -41,-45 -42,-98c-2,-51 -8,-66 -51,-132c-27,-41 -57,-82 -66,-90c-24,-21 -42,-92 -26,-102c20,-13 23,-10 71,44c25,29 57,81 72,118c43,108 62,125 118,104c21,-8 21,-54 1,-54c-8,0 -15,-7 -15,-15c0,-8 5,-15 10,-15c16,0 12,-37 -5,-44c-17,-6 -21,-36 -5,-36c17,0 11,-18 -12,-40c-16,-14 -35,-20 -70,-20c-53,0 -62,-14 -28,-45c13,-12 27,-15 44,-11c34,8 41,-8 17,-41c-18,-24 -19,-34 -11,-64c6,-20 18,-43 26,-50c26,-21 81,45 89,108c4,26 8,53 10,59c1,5 38,15 81,21c141,19 192,57 118,88c-19,8 -48,24 -65,35c-34,25 -34,24 -14,-23c8,-20 11,-38 7,-40c-4,-3 -30,-8 -58,-12c-60,-8 -82,9 -46,33c22,15 30,42 12,42c-5,0 -10,6 -10,13c0,7 20,18 45,25c55,15 65,45 13,41c-18,-2 -34,0 -35,4c-15,40 41,70 161,88c56,9 76,15 76,27c0,15 -36,14 -165,-3c-43,-6 -42,-5 43,31c49,21 112,74 112,95c0,21 -43,33 -70,19c-27,-15 -30,-13 -30,18c0,35 -60,105 -84,96c-14,-5 -56,-99 -56,-125c0,-6 -14,-24 -31,-40c-23,-22 -27,-29 -14,-29c14,0 16,-7 10,-42c-8,-48 -11,-53 -42,-63c-18,-5 -23,-2 -23,11c0,10 -14,33 -32,51l-32,33l21,27c15,21 30,29 61,31c30,2 45,9 53,24c10,19 5,27 -44,75c-49,47 -77,64 -77,47zm290,-169c-7,-8 -17,-15 -22,-15c-6,0 -5,7 2,15c7,8 17,15 22,15c6,0 5,-7 -2,-15zm-350,-225c-26,-37 -51,-53 -29,-20c8,14 19,31 23,38c4,6 12,12 17,12c6,0 1,-13 -11,-30z"/>
   <path id="svg_48" fill="#006db8" d="m3860,2063c0,-5 6,-28 14,-53c8,-26 17,-89 21,-141l7,-95l-45,-41c-25,-23 -64,-51 -86,-63c-42,-21 -44,-27 -13,-62c24,-28 55,-21 97,22c43,44 55,49 55,23c0,-46 -41,-100 -110,-144c-73,-46 -84,-59 -49,-59c81,0 174,59 202,127c8,21 18,73 22,116c7,77 7,77 56,118c27,22 59,55 71,71c21,30 21,31 3,44c-20,15 -105,19 -105,6c0,-4 5,-13 11,-19c9,-9 6,-18 -8,-37c-11,-14 -23,-23 -25,-20c-3,3 -3,45 0,94l5,90l-36,15c-38,16 -87,20 -87,8z"/>
   <path id="svg_49" fill="#006db8" d="m4000,1703c0,-24 116,-133 141,-133c20,0 119,85 119,101c0,12 -32,11 -83,-3c-52,-13 -86,-6 -125,27c-35,29 -52,32 -52,8z"/>
   <!-- <path style="fill:#006db8;" d="M21648 7343 c-25 -55 -29 -176 -14 -443 l8 -155 -81 -480 c-45 -264
-96 -547 -114 -630 l-32 -150 -110 -67 c-202 -123 -516 -276 -691 -336 -33
-11 -112 -28 -175 -36 -63 -9 -154 -26 -202 -38 l-88 -22 7 -41 c51 -309 170
-485 330 -485 93 0 256 75 436 201 147 103 327 219 341 219 5 0 7 -19 3 -47
-47 -330 -198 -544 -489 -694 -133 -68 -237 -106 -537 -195 -371 -109 -375
-111 -389 -140 -26 -58 -9 -76 98 -108 94 -28 341 -49 501 -43 159 6 271 29
416 86 305 122 591 389 743 696 34 70 83 208 161 455 77 245 117 360 131 372
33 28 323 190 479 268 272 135 467 265 573 379 49 54 57 67 57 102 0 32 -7 47
-39 82 -43 46 -163 114 -296 167 -92 37 -317 100 -357 100 -45 0 -46 -35 -4
-151 20 -55 36 -111 36 -124 0 -32 -46 -83 -128 -143 -84 -62 -192 -126 -198
-119 -9 8 25 163 58 267 17 52 63 182 104 287 96 250 121 325 150 453 35 156
36 153 -49 235 -137 132 -365 267 -515 306 -41 10 -81 19 -89 19 -8 0 -24 -21
-35 -47z"/> -->
   <!-- <path style="fill:#006db8;" d="M21971 4967 c-45 -55 -54 -183 -20 -293 43 -139 139 -306 302 -526
46 -63 105 -147 131 -186 57 -86 111 -134 168 -151 162 -49 311 -2 548 175 63
47 160 108 215 137 55 28 119 69 142 90 41 37 70 92 54 102 -14 8 -243 54
-306 60 -33 4 -128 2 -211 -4 -176 -12 -287 -3 -376 33 -161 65 -395 295 -530
522 -30 50 -36 54 -69 54 -20 0 -42 -6 -48 -13z"/> -->
   <!-- <path style="fill:#006db8;" d="M10098 2336 c-88 -31 -128 -87 -128 -176 0 -155 168 -240 321 -162
69 35 99 83 99 162 0 79 -30 127 -99 163 -61 30 -131 35 -193 13z"/>
<path style="fill:#006db8;" d="M13745 2338 c-84 -31 -128 -92 -128 -178 0 -70 22 -113 82 -155 39
-27 50 -30 124 -30 71 0 88 4 129 27 116 69 117 246 1 315 -51 29 -157 41
-208 21z"/>
<path style="fill:#006db8;" d="M14424 2326 c-77 -36 -99 -73 -99 -167 0 -67 3 -80 27 -111 40 -53
89 -73 178 -73 61 0 83 5 118 25 90 51 120 166 67 256 -51 88 -184 120 -291
70z"/>
<path style="fill:#006db8;" d="M20576 2336 c-128 -48 -168 -203 -78 -300 80 -85 236 -89 323 -6 86
82 72 218 -31 286 -50 33 -153 43 -214 20z"/> -->
   <!-- <path style="fill:#006db8;" d="M26178 2340 c-120 -36 -175 -168 -115 -275 30 -55 109 -95 186 -95
169 0 262 143 188 287 -39 74 -160 113 -259 83z"/> -->
   <!-- <path style="fill:#006db8;" d="M8410 2120 l0 -160 245 0 245 0 0 -690 0 -690 200 0 200 0 0 690 0
690 250 0 250 0 0 160 0 160 -695 0 -695 0 0 -160z"/> -->
   <!-- <path style="fill:#006db8;" d="M17140 1828 c1 -654 13 -777 97 -948 47 -97 150 -201 245 -248 135
-66 330 -94 503 -73 201 24 320 76 429 184 87 87 136 176 174 315 l26 97 4
563 3 562 -205 0 -205 0 -3 -567 c-3 -557 -4 -569 -26 -634 -47 -140 -136
-210 -278 -217 -112 -6 -172 15 -240 82 -56 57 -87 123 -104 228 -6 37 -10
278 -10 586 l0 522 -205 0 -205 0 0 -452z"/>
<path style="fill:#006db8;" d="M26808 1888 l-3 -73 -87 -3 -88 -3 0 -139 0 -140 89 0 90 0 3 -337
c4 -314 6 -342 25 -394 56 -151 140 -212 325 -239 71 -10 265 3 281 19 8 8 76
263 77 287 0 7 -33 9 -103 6 -128 -6 -158 7 -190 76 -20 44 -22 66 -25 314
l-4 267 149 3 148 3 3 137 3 137 -148 3 -148 3 -3 73 -3 72 -194 0 -194 0 -3
-72z"/> -->
   <!-- <path style="fill:#006db8;" d="M11020 1833 c-123 -19 -330 -83 -330 -101 0 -4 16 -58 35 -121 19
-62 35 -115 35 -116 0 -1 39 13 88 31 219 82 432 70 492 -29 11 -18 20 -47 20
-64 l0 -33 -66 0 c-37 0 -114 -7 -172 -16 -313 -46 -488 -175 -521 -385 -45
-277 191 -484 500 -441 98 14 188 53 248 108 49 43 56 39 66 -38 l7 -48 185 0
c173 0 185 1 177 18 -4 9 -10 204 -14 432 -6 356 -9 423 -25 470 -57 179 -158
273 -343 321 -59 15 -106 19 -216 18 -78 -1 -152 -3 -166 -6z m358 -772 c-3
-86 -7 -103 -31 -139 -57 -86 -179 -124 -271 -84 -115 52 -106 215 15 278 47
24 139 42 218 43 l73 1 -4 -99z"/> -->
   <!-- <path style="fill:#006db8;" d="M12703 1826 c-84 -21 -162 -65 -224 -127 l-58 -58 -6 57 c-3 31 -9
69 -11 85 l-6 27 -175 0 -176 0 6 -82 c4 -46 7 -323 7 -615 l0 -533 205 0 205
0 0 395 c0 370 1 398 19 433 41 79 113 122 204 122 82 0 135 -32 172 -105 l30
-59 3 -393 3 -393 200 0 200 0 -3 443 c-3 429 -4 444 -26 509 -46 137 -145
242 -267 284 -65 22 -232 28 -302 10z"/>
<path style="fill:#006db8;" d="M15653 1821 c-82 -24 -166 -75 -218 -135 l-43 -49 -7 49 c-3 27 -8
66 -11 87 l-6 37 -175 0 -176 0 6 -112 c4 -62 7 -339 7 -615 l0 -503 199 0
200 0 3 393 c3 379 4 393 25 432 44 82 114 125 203 125 65 0 108 -18 147 -63
54 -62 56 -78 60 -499 l4 -388 200 0 199 0 0 413 c0 453 -5 501 -60 612 -55
113 -164 197 -288 224 -76 16 -197 12 -269 -8z"/> -->
   <!-- <path style="fill:#006db8;" d="M19560 1824 c-87 -23 -158 -64 -220 -127 l-58 -58 -8 83 -9 83 -179
3 -179 2 7 -46 c3 -26 6 -303 6 -615 l0 -569 205 0 204 0 3 403 3 403 28 42
c43 65 97 96 177 100 112 7 171 -36 204 -147 13 -46 16 -114 16 -428 l0 -373
200 0 200 0 0 423 c0 462 -4 496 -59 605 -79 155 -215 233 -406 231 -44 0
-105 -7 -135 -15z"/> -->
   <!-- <path style="fill:#006db8;" d="M22930 1824 c-36 -7 -103 -32 -150 -55 -211 -104 -340 -327 -340
-589 0 -184 52 -322 165 -436 146 -147 355 -207 649 -184 190 14 361 57 352
88 -3 10 -14 67 -26 127 -12 61 -23 111 -24 112 0 1 -37 -8 -81 -18 -118 -30
-332 -37 -423 -14 -82 20 -148 58 -185 106 -26 35 -50 103 -39 113 3 3 193 6
422 6 l418 0 6 31 c3 17 6 69 6 116 0 312 -164 543 -427 598 -85 18 -237 18
-323 -1z m215 -245 c82 -23 141 -97 159 -201 l7 -38 -246 0 -245 0 6 28 c38
164 170 252 319 211z"/> -->
   <!-- <path style="fill:#006db8;" d="M24518 1826 c-96 -34 -179 -106 -220 -191 -12 -25 -25 -45 -29 -45
-4 0 -10 50 -14 110 l-7 110 -175 0 -176 0 7 -46 c3 -26 6 -303 6 -615 l0
-569 205 0 205 0 0 348 c0 400 2 414 75 481 56 52 99 69 193 78 l76 8 42 167
c41 165 41 166 20 172 -38 10 -170 5 -208 -8z"/> -->
   <!-- <path style="fill:#006db8;" d="M25214 1821 c-151 -41 -259 -122 -310 -234 -25 -53 -29 -75 -29 -147
0 -76 3 -91 30 -138 56 -103 156 -171 343 -236 129 -45 158 -61 177 -103 13
-28 14 -40 5 -69 -18 -54 -56 -69 -175 -69 -105 1 -181 17 -286 59 -52 21 -59
22 -64 7 -22 -72 -63 -246 -59 -252 8 -13 109 -47 196 -66 112 -23 336 -23
433 0 224 55 347 189 347 377 -1 190 -99 295 -364 388 -155 55 -198 86 -198
142 0 38 25 66 75 86 61 23 170 13 281 -25 74 -25 84 -27 89 -12 2 9 18 67 34
129 34 130 41 118 -80 153 -109 31 -346 37 -445 10z"/> -->
   <!-- <path style="fill:#006db8;" d="M9980 1195 l0 -615 200 0 200 0 0 615 0 615 -200 0 -200 0 0 -615z"/>
<path style="fill:#006db8;" d="M13627 1208 c-5 -616 -8 -664 -45 -738 -26 -48 -91 -96 -165 -119
-34 -10 -65 -25 -69 -32 -10 -18 -78 -312 -74 -316 8 -8 185 20 276 44 202 51
341 148 407 284 67 136 66 126 70 837 l4 642 -200 0 -199 0 -5 -602z"/>
<path style="fill:#006db8;" d="M14330 1195 l0 -615 200 0 200 0 0 615 0 615 -200 0 -200 0 0 -615z"/>
<path style="fill:#006db8;" d="M20460 1195 l0 -615 200 0 200 0 0 615 0 615 -200 0 -200 0 0 -615z"/>
<path style="fill:#006db8;" d="M21050 1758 c11 -29 118 -306 237 -616 l217 -562 204 2 205 3 238
605 c132 333 239 608 239 613 0 4 -94 7 -209 7 l-209 0 -16 -47 c-44 -137
-179 -612 -200 -706 -13 -60 -27 -111 -29 -114 -6 -6 -9 5 -41 137 -20 86
-140 491 -202 683 l-16 47 -219 0 -219 0 20 -52z"/> -->
   <!-- <path style="fill:#006db8;" d="M26050 1195 l0 -615 200 0 200 0 0 615 0 615 -200 0 -200 0 0 -615z"/>
<path style="fill:#006db8;" d="M27624 1792 c3 -10 114 -271 246 -581 132 -310 240 -575 240 -589 0
-36 -53 -113 -117 -172 -55 -50 -157 -110 -188 -110 -21 0 -28 -21 -65 -180
-17 -74 -33 -141 -35 -148 -7 -19 119 -5 223 24 299 86 479 290 677 769 48
116 375 985 375 996 0 5 -96 9 -212 9 l-213 0 -88 -328 c-48 -180 -97 -366
-108 -414 -12 -49 -25 -88 -29 -88 -4 0 -14 28 -24 63 -9 34 -67 221 -128 415
l-112 352 -224 0 c-210 0 -223 -1 -218 -18z"/> -->
  </g>
 </g>
</svg>