<?xml version="1.0" encoding="UTF-8" standalone="no"?>
<svg
   xmlns:dc="http://purl.org/dc/elements/1.1/"
   xmlns:cc="http://creativecommons.org/ns#"
   xmlns:rdf="http://www.w3.org/1999/02/22-rdf-syntax-ns#"
   xmlns:svg="http://www.w3.org/2000/svg"
   xmlns="http://www.w3.org/2000/svg"
   viewBox="0 0 110.0000 110.52"
   height="1000.52"
   width="1000.70001"
   xml:space="preserve"
   id="svg2"
   version="1.1"><metadata
     id="metadata8"><rdf:RDF><cc:Work
         rdf:about=""><dc:format>image/svg+xml</dc:format><dc:type
           rdf:resource="http://purl.org/dc/dcmitype/StillImage" /></cc:Work></rdf:RDF></metadata><defs
     id="defs6"><clipPath
       id="clipPath18"
       clipPathUnits="userSpaceOnUse"><path
         id="path16"
         d="M 0,841.89 H 595.275 V 0 H 0 Z" /></clipPath></defs><g
     transform="matrix(1.3333333,0,0,-1.3333333,0,0.52)"
     id="g10">
          <g transform="translate(67.2095,-12.0161)"
           id="g94"><path
             id="path96"
             style="fill:#006db8;fill-opacity:1;fill-rule:evenodd;stroke:none"
             d="m 0,0 h -23.582 v -12.75 h 6.936 v 8.196 H 0 v -2.383 0 -7.073 0 -2.384 h -51.586 -3.468 c -1.908,0 -3.469,-1.56 -3.469,-3.468 v -3.06 -0.408 -15.271 -0.663 -2.804 -0.001 c 0,-1.907 1.561,-3.468 3.469,-3.468 h 3.147 0.321 58.523 v 4.554 h -58.523 v 2.382 h -0.001 v 15.271 h 0.001 v 2.383 H 0 0.372 3.468 v 0 c 1.907,0 3.469,1.561 3.469,3.468 v 2.729 0.74 7.073 0.967 2.501 10e-4 C 6.937,-1.561 5.375,0 3.468,0 v 0 z m -28.004,0 h -23.582 v 2.383 h -0.001 v 2.17 h -6.936 v -2.17 -3.468 0 c 0,-1.908 1.561,-3.469 3.468,-3.469 v 0 h 2.445 1.024 23.582 z M 3.468,-49.18 v 0 c 1.907,0 3.469,-1.561 3.469,-3.468 v -3.134 -0.335 -6.723 H 0 v 6.723 0 2.383 h -23.582 v 4.554 H 0 v 0 z m -31.472,-4.554 h -23.582 v -2.383 h -0.001 v -6.723 h -6.936 v 6.723 0.511 2.958 c 0,1.907 1.561,3.468 3.469,3.468 h 3.468 v 0 h 23.582 z m -12.022,24.59 h 28.466 v -3.643 h -28.466 z m -2.48,4.554 h -4.456 v -12.75 h 4.456 v 0 h 33.329 v 0 h 4.553 v 12.75 h -4.553 z m 49.443,0 H 10e-4 v -12.75 h 6.936 z m -34.941,16.393 h -30.519 v -4.554 h 30.519 z" /></g></g></svg>